<svg width="135" height="166" viewBox="0 0 135 166" fill="none" xmlns="http://www.w3.org/2000/svg">
<path d="M65 17L74 16.5L78 19L90 36.5L92.5 41.6655C97 57.1655 86 130.5 86 130.5L53 153.166L24.5 114C24.5 114 59 18.1653 65 17Z" fill="#FFC20C"/>
<path d="M65 17L74 16.5L78 19L90 36.5L92.5 41.6655C97 57.1655 86 130.5 86 130.5L53 153.166L24.5 114C24.5 114 59 18.1653 65 17Z" fill="url(#paint0_linear)"/>
<path d="M65 17L74 16.5L78 19L90 36.5L92.5 41.6655C97 57.1655 86 130.5 86 130.5L53 153.166L24.5 114C24.5 114 59 18.1653 65 17Z" stroke="#66500E" stroke-width="6" stroke-linecap="round" stroke-linejoin="round"/>
<g filter="url(#filter0_b)">
<rect y="108" width="135" height="58" fill="white" fill-opacity="0.8"/>
</g>
<defs>
<filter id="filter0_b" x="-10" y="98" width="155" height="78" filterUnits="userSpaceOnUse" color-interpolation-filters="sRGB">
<feFlood flood-opacity="0" result="BackgroundImageFix"/>
<feGaussianBlur in="BackgroundImage" stdDeviation="5"/>
<feComposite in2="SourceAlpha" operator="in" result="effect1_backgroundBlur"/>
<feBlend mode="normal" in="SourceGraphic" in2="effect1_backgroundBlur" result="shape"/>
</filter>
<linearGradient id="paint0_linear" x1="85.5" y1="65.5" x2="69.5" y2="80.5" gradientUnits="userSpaceOnUse">
<stop stop-opacity="0.04"/>
<stop offset="1" stop-opacity="0"/>
</linearGradient>
</defs>
</svg>
