<svg width="164" height="43" viewBox="0 0 164 43" fill="none" xmlns="http://www.w3.org/2000/svg">
<path d="M20.6768 37.6744H0C0 40.5908 2.31054 42.95 5.17048 42.95H20.6768C23.5316 42.95 25.8421 40.5856 25.8421 37.6744V15.9992C25.8421 15.895 25.76 15.8013 25.6573 15.8013H20.8616C20.7589 15.8013 20.6768 15.8898 20.6768 15.9939V37.6692V37.6744ZM20.6768 6C23.5316 6 25.8421 8.36438 25.8421 11.2808H5.17048V32.956C5.17048 33.0602 5.08319 33.1487 4.9805 33.1487H0.189975C0.0872847 33.1487 0 33.0602 0 32.956V11.2808C0 8.36438 2.31054 6 5.17048 6H20.6768Z" fill="#36AA3A"/>
<path d="M75.5 6L77.1839 11.1824H82.6329L78.2245 14.3853L79.9084 19.5676L75.5 16.3647L71.0916 19.5676L72.7755 14.3853L68.3671 11.1824H73.8161L75.5 6Z" fill="#36AA3A" stroke="#36AA3A" stroke-linecap="round" stroke-linejoin="round"/>
<path d="M92.5 6L94.1839 11.1824H99.6329L95.2245 14.3853L96.9084 19.5676L92.5 16.3647L88.0916 19.5676L89.7755 14.3853L85.3671 11.1824H90.8161L92.5 6Z" fill="#36AA3A" stroke="#36AA3A" stroke-linecap="round" stroke-linejoin="round"/>
<path d="M109.5 6L111.184 11.1824H116.633L112.225 14.3853L113.908 19.5676L109.5 16.3647L105.092 19.5676L106.775 14.3853L102.367 11.1824H107.816L109.5 6Z" fill="#36AA3A" stroke="#36AA3A" stroke-linecap="round" stroke-linejoin="round"/>
<path d="M126.5 6L128.184 11.1824H133.633L129.225 14.3853L130.908 19.5676L126.5 16.3647L122.092 19.5676L123.775 14.3853L119.367 11.1824H124.816L126.5 6Z" fill="#36AA3A" stroke="#36AA3A" stroke-linecap="round" stroke-linejoin="round"/>
<path d="M143.5 6L145.184 11.1824H150.633L146.225 14.3853L147.908 19.5676L143.5 16.3647L139.092 19.5676L140.775 14.3853L136.367 11.1824H141.816L143.5 6Z" fill="#36AA3A" stroke="#36AA3A" stroke-linecap="round" stroke-linejoin="round"/>
<path d="M40.088 33.792C40.4707 33.792 40.8067 33.7453 41.096 33.652C41.39 33.5587 41.635 33.428 41.831 33.26C42.027 33.0873 42.174 32.8843 42.272 32.651C42.37 32.413 42.419 32.1517 42.419 31.867C42.419 31.2883 42.2277 30.852 41.845 30.558C41.467 30.264 40.8977 30.117 40.137 30.117H38.73V33.792H40.088ZM44.778 39H43.448C43.182 39 42.9883 38.895 42.867 38.685L40.382 35.199C40.3027 35.0823 40.2163 35.0007 40.123 34.954C40.0297 34.9027 39.8897 34.877 39.703 34.877H38.73V39H37.239V28.948H40.137C40.7857 28.948 41.3433 29.0157 41.81 29.151C42.2813 29.2817 42.6687 29.4707 42.972 29.718C43.28 29.9607 43.5063 30.2547 43.651 30.6C43.8003 30.9453 43.875 31.3327 43.875 31.762C43.875 32.112 43.8213 32.441 43.714 32.749C43.6067 33.057 43.448 33.3347 43.238 33.582C43.0327 33.8247 42.7807 34.0347 42.482 34.212C42.1833 34.3893 41.845 34.5247 41.467 34.618C41.6537 34.73 41.8147 34.8863 41.95 35.087L44.778 39ZM50.0372 34.653C50.0372 34.3823 49.9975 34.1327 49.9182 33.904C49.8435 33.6753 49.7315 33.477 49.5822 33.309C49.4329 33.141 49.2509 33.0103 49.0362 32.917C48.8215 32.8237 48.5742 32.777 48.2942 32.777C47.7202 32.777 47.2675 32.9427 46.9362 33.274C46.6095 33.6053 46.4019 34.065 46.3132 34.653H50.0372ZM51.1642 37.985C50.9962 38.181 50.8025 38.3513 50.5832 38.496C50.3639 38.636 50.1305 38.7503 49.8832 38.839C49.6359 38.9277 49.3792 38.993 49.1132 39.035C48.8519 39.077 48.5929 39.098 48.3362 39.098C47.8462 39.098 47.3912 39.0163 46.9712 38.853C46.5559 38.685 46.1942 38.4423 45.8862 38.125C45.5829 37.803 45.3449 37.4063 45.1722 36.935C45.0042 36.459 44.9202 35.913 44.9202 35.297C44.9202 34.8023 44.9972 34.3427 45.1512 33.918C45.3052 33.4887 45.5245 33.1153 45.8092 32.798C46.0985 32.4807 46.4509 32.231 46.8662 32.049C47.2815 31.867 47.7482 31.776 48.2662 31.776C48.7002 31.776 49.0992 31.8483 49.4632 31.993C49.8319 32.133 50.1492 32.3383 50.4152 32.609C50.6812 32.8797 50.8889 33.2133 51.0382 33.61C51.1922 34.0067 51.2692 34.4593 51.2692 34.968C51.2692 35.178 51.2459 35.3203 51.1992 35.395C51.1525 35.465 51.0662 35.5 50.9402 35.5H46.2782C46.2922 35.9247 46.3529 36.2957 46.4602 36.613C46.5675 36.9257 46.7145 37.187 46.9012 37.397C47.0925 37.607 47.3189 37.7633 47.5802 37.866C47.8415 37.9687 48.1332 38.02 48.4552 38.02C48.7585 38.02 49.0199 37.985 49.2392 37.915C49.4632 37.845 49.6545 37.7703 49.8132 37.691C49.9765 37.607 50.1119 37.53 50.2192 37.46C50.3312 37.39 50.4292 37.355 50.5132 37.355C50.6252 37.355 50.7115 37.397 50.7722 37.481L51.1642 37.985ZM58.7463 31.888L55.8623 39H54.6303L51.7463 31.888H52.8733C52.9806 31.888 53.0693 31.9137 53.1393 31.965C53.2093 32.0163 53.2559 32.0817 53.2793 32.161L54.9803 36.529C55.0409 36.711 55.0923 36.893 55.1343 37.075C55.1809 37.2523 55.2229 37.4297 55.2603 37.607C55.2976 37.4297 55.3396 37.2523 55.3863 37.075C55.4329 36.8977 55.4889 36.7157 55.5543 36.529L57.2763 32.161C57.3043 32.0817 57.3533 32.0163 57.4233 31.965C57.4933 31.9137 57.5773 31.888 57.6753 31.888H58.7463ZM61.26 31.888V39H59.895V31.888H61.26ZM61.519 29.69C61.519 29.816 61.4934 29.9373 61.442 30.054C61.3907 30.166 61.3207 30.2663 61.232 30.355C61.148 30.439 61.0477 30.5067 60.931 30.558C60.8144 30.6047 60.693 30.628 60.567 30.628C60.441 30.628 60.322 30.6047 60.21 30.558C60.098 30.5067 59.9977 30.439 59.909 30.355C59.825 30.2663 59.7574 30.166 59.706 30.054C59.6594 29.9373 59.636 29.816 59.636 29.69C59.636 29.5593 59.6594 29.438 59.706 29.326C59.7574 29.2093 59.825 29.109 59.909 29.025C59.9977 28.9363 60.098 28.8687 60.21 28.822C60.322 28.7707 60.441 28.745 60.567 28.745C60.693 28.745 60.8144 28.7707 60.931 28.822C61.0477 28.8687 61.148 28.9363 61.232 29.025C61.3207 29.109 61.3907 29.2093 61.442 29.326C61.4934 29.438 61.519 29.5593 61.519 29.69ZM67.9473 34.653C67.9473 34.3823 67.9077 34.1327 67.8283 33.904C67.7537 33.6753 67.6417 33.477 67.4923 33.309C67.343 33.141 67.161 33.0103 66.9463 32.917C66.7317 32.8237 66.4843 32.777 66.2043 32.777C65.6303 32.777 65.1777 32.9427 64.8463 33.274C64.5197 33.6053 64.312 34.065 64.2233 34.653H67.9473ZM69.0743 37.985C68.9063 38.181 68.7127 38.3513 68.4933 38.496C68.274 38.636 68.0407 38.7503 67.7933 38.839C67.546 38.9277 67.2893 38.993 67.0233 39.035C66.762 39.077 66.503 39.098 66.2463 39.098C65.7563 39.098 65.3013 39.0163 64.8813 38.853C64.466 38.685 64.1043 38.4423 63.7963 38.125C63.493 37.803 63.255 37.4063 63.0823 36.935C62.9143 36.459 62.8303 35.913 62.8303 35.297C62.8303 34.8023 62.9073 34.3427 63.0613 33.918C63.2153 33.4887 63.4347 33.1153 63.7193 32.798C64.0087 32.4807 64.361 32.231 64.7763 32.049C65.1917 31.867 65.6583 31.776 66.1763 31.776C66.6103 31.776 67.0093 31.8483 67.3733 31.993C67.742 32.133 68.0593 32.3383 68.3253 32.609C68.5913 32.8797 68.799 33.2133 68.9483 33.61C69.1023 34.0067 69.1793 34.4593 69.1793 34.968C69.1793 35.178 69.156 35.3203 69.1093 35.395C69.0627 35.465 68.9763 35.5 68.8503 35.5H64.1883C64.2023 35.9247 64.263 36.2957 64.3703 36.613C64.4777 36.9257 64.6247 37.187 64.8113 37.397C65.0027 37.607 65.229 37.7633 65.4903 37.866C65.7517 37.9687 66.0433 38.02 66.3653 38.02C66.6687 38.02 66.93 37.985 67.1493 37.915C67.3733 37.845 67.5647 37.7703 67.7233 37.691C67.8867 37.607 68.022 37.53 68.1293 37.46C68.2413 37.39 68.3393 37.355 68.4233 37.355C68.5353 37.355 68.6217 37.397 68.6823 37.481L69.0743 37.985ZM80.4555 31.888L78.1665 39H77.0745C76.9438 39 76.8551 38.9137 76.8085 38.741L75.3105 34.107C75.2731 33.9903 75.2405 33.876 75.2125 33.764C75.1845 33.6473 75.1588 33.5307 75.1355 33.414C75.0935 33.6567 75.0351 33.8923 74.9605 34.121L73.4415 38.741C73.3948 38.9137 73.2945 39 73.1405 39H72.1045L69.8085 31.888H70.8865C70.9938 31.888 71.0825 31.9137 71.1525 31.965C71.2271 32.0163 71.2761 32.0817 71.2995 32.161L72.5805 36.529C72.6225 36.7063 72.6598 36.879 72.6925 37.047C72.7251 37.215 72.7555 37.383 72.7835 37.551C72.8255 37.383 72.8698 37.215 72.9165 37.047C72.9678 36.879 73.0191 36.7063 73.0705 36.529L74.4915 32.133C74.5148 32.0537 74.5591 31.9907 74.6245 31.944C74.6898 31.8927 74.7691 31.867 74.8625 31.867H75.4575C75.5601 31.867 75.6441 31.8927 75.7095 31.944C75.7795 31.9907 75.8261 32.0537 75.8495 32.133L77.2355 36.529C77.2868 36.7063 77.3358 36.8813 77.3825 37.054C77.4291 37.222 77.4711 37.3923 77.5085 37.565C77.5365 37.397 77.5691 37.229 77.6065 37.061C77.6438 36.8883 77.6858 36.711 77.7325 36.529L79.0345 32.161C79.0578 32.0817 79.1045 32.0163 79.1745 31.965C79.2491 31.9137 79.3331 31.888 79.4265 31.888H80.4555ZM85.736 33.113C85.6987 33.1737 85.659 33.218 85.617 33.246C85.575 33.2693 85.5213 33.281 85.456 33.281C85.3813 33.281 85.2973 33.2553 85.204 33.204C85.1153 33.1527 85.0057 33.0967 84.875 33.036C84.749 32.9753 84.5997 32.9193 84.427 32.868C84.2543 32.8167 84.049 32.791 83.811 32.791C83.615 32.791 83.4353 32.8167 83.272 32.868C83.1133 32.9147 82.978 32.9823 82.866 33.071C82.754 33.155 82.6677 33.2577 82.607 33.379C82.5463 33.4957 82.516 33.6217 82.516 33.757C82.516 33.9343 82.5673 34.0813 82.67 34.198C82.7773 34.3147 82.915 34.415 83.083 34.499C83.2557 34.583 83.4493 34.66 83.664 34.73C83.8833 34.7953 84.105 34.8653 84.329 34.94C84.5577 35.0147 84.7793 35.101 84.994 35.199C85.2133 35.2923 85.407 35.4113 85.575 35.556C85.7477 35.696 85.8853 35.8663 85.988 36.067C86.0953 36.2677 86.149 36.5127 86.149 36.802C86.149 37.1333 86.0883 37.4413 85.967 37.726C85.8503 38.006 85.6753 38.2487 85.442 38.454C85.2133 38.6593 84.9287 38.8203 84.588 38.937C84.2473 39.0537 83.8577 39.112 83.419 39.112C82.929 39.112 82.4763 39.0303 82.061 38.867C81.6457 38.7037 81.298 38.496 81.018 38.244L81.34 37.719C81.3773 37.6537 81.424 37.6047 81.48 37.572C81.536 37.5347 81.6107 37.516 81.704 37.516C81.7927 37.516 81.8837 37.5487 81.977 37.614C82.0703 37.6793 82.1823 37.7517 82.313 37.831C82.4437 37.9057 82.6023 37.9757 82.789 38.041C82.9757 38.1017 83.209 38.132 83.489 38.132C83.7223 38.132 83.9253 38.104 84.098 38.048C84.2707 37.9873 84.413 37.908 84.525 37.81C84.6417 37.7073 84.728 37.5907 84.784 37.46C84.84 37.3293 84.868 37.1917 84.868 37.047C84.868 36.8603 84.8143 36.7063 84.707 36.585C84.6043 36.459 84.4667 36.3517 84.294 36.263C84.126 36.1743 83.9323 36.0973 83.713 36.032C83.4937 35.9667 83.2697 35.8967 83.041 35.822C82.8123 35.7473 82.5883 35.661 82.369 35.563C82.1497 35.465 81.9537 35.3413 81.781 35.192C81.613 35.0427 81.4753 34.8607 81.368 34.646C81.2653 34.4313 81.214 34.17 81.214 33.862C81.214 33.5867 81.27 33.323 81.382 33.071C81.4987 32.819 81.6643 32.5973 81.879 32.406C82.0983 32.2147 82.3667 32.063 82.684 31.951C83.006 31.8343 83.3723 31.776 83.783 31.776C84.2543 31.776 84.679 31.8507 85.057 32C85.4397 32.1493 85.7663 32.3547 86.037 32.616L85.736 33.113Z" fill="#0D0D0D"/>
<path d="M39.73 11C40.4633 10.8467 41.1267 10.77 41.72 10.77C42.4667 10.77 43.1267 10.8833 43.7 11.11C44.2733 11.33 44.7533 11.6367 45.14 12.03C45.5333 12.4167 45.8267 12.8767 46.02 13.41C46.22 13.9367 46.32 14.51 46.32 15.13C46.32 15.89 46.1867 16.58 45.92 17.2C45.6533 17.82 45.2867 18.35 44.82 18.79C44.3533 19.23 43.8 19.57 43.16 19.81C42.5267 20.0433 41.8433 20.16 41.11 20.16C40.6767 20.16 40.2633 20.1167 39.87 20.03C39.4833 19.9433 39.12 19.83 38.78 19.69C38.44 19.5433 38.1233 19.3767 37.83 19.19C37.5433 19.0033 37.2867 18.8067 37.06 18.6L37.66 17.76C37.7867 17.5733 37.9567 17.48 38.17 17.48C38.31 17.48 38.4633 17.5333 38.63 17.64C38.8033 17.74 39.0067 17.8533 39.24 17.98C39.4733 18.1067 39.75 18.2233 40.07 18.33C40.39 18.43 40.77 18.48 41.21 18.48C41.6967 18.48 42.1333 18.4033 42.52 18.25C42.9133 18.09 43.2433 17.8667 43.51 17.58C43.7833 17.2933 43.99 16.95 44.13 16.55C44.2767 16.15 44.35 15.7067 44.35 15.22C44.35 14.7867 44.2867 14.3967 44.16 14.05C44.0333 13.7033 43.8433 13.4067 43.59 13.16C43.3367 12.9133 43.02 12.7267 42.64 12.6C42.26 12.4667 41.8167 12.4 41.31 12.4C40.6033 12.4 39.85 12.5267 39.05 12.78L37.82 12.42L38.99 5.64H45.87V6.49C45.87 6.77 45.78 7 45.6 7.18C45.4267 7.35333 45.1333 7.44 44.72 7.44H40.35L39.73 11ZM48.6516 18.83C48.6516 18.65 48.6849 18.48 48.7516 18.32C48.8182 18.16 48.9082 18.02 49.0216 17.9C49.1416 17.78 49.2816 17.6867 49.4416 17.62C49.6016 17.5467 49.7749 17.51 49.9616 17.51C50.1416 17.51 50.3116 17.5467 50.4716 17.62C50.6316 17.6867 50.7716 17.78 50.8916 17.9C51.0116 18.02 51.1049 18.16 51.1716 18.32C51.2449 18.48 51.2816 18.65 51.2816 18.83C51.2816 19.0167 51.2449 19.19 51.1716 19.35C51.1049 19.51 51.0116 19.65 50.8916 19.77C50.7716 19.89 50.6316 19.9833 50.4716 20.05C50.3116 20.1167 50.1416 20.15 49.9616 20.15C49.7749 20.15 49.6016 20.1167 49.4416 20.05C49.2816 19.9833 49.1416 19.89 49.0216 19.77C48.9082 19.65 48.8182 19.51 48.7516 19.35C48.6849 19.19 48.6516 19.0167 48.6516 18.83ZM63.3481 12.82C63.3481 14.0733 63.2115 15.16 62.9381 16.08C62.6715 17 62.3015 17.7633 61.8281 18.37C61.3615 18.97 60.8081 19.4167 60.1681 19.71C59.5348 20.0033 58.8515 20.15 58.1181 20.15C57.3848 20.15 56.6981 20.0033 56.0581 19.71C55.4248 19.4167 54.8748 18.97 54.4081 18.37C53.9415 17.7633 53.5748 17 53.3081 16.08C53.0415 15.16 52.9081 14.0733 52.9081 12.82C52.9081 11.5667 53.0415 10.48 53.3081 9.56C53.5748 8.63333 53.9415 7.87 54.4081 7.27C54.8748 6.66333 55.4248 6.21333 56.0581 5.92C56.6981 5.62667 57.3848 5.48 58.1181 5.48C58.8515 5.48 59.5348 5.62667 60.1681 5.92C60.8081 6.21333 61.3615 6.66333 61.8281 7.27C62.3015 7.87 62.6715 8.63333 62.9381 9.56C63.2115 10.48 63.3481 11.5667 63.3481 12.82ZM61.3281 12.82C61.3281 11.74 61.2381 10.8367 61.0581 10.11C60.8848 9.38333 60.6481 8.8 60.3481 8.36C60.0548 7.91333 59.7148 7.59667 59.3281 7.41C58.9415 7.22333 58.5381 7.13 58.1181 7.13C57.6981 7.13 57.2948 7.22333 56.9081 7.41C56.5215 7.59667 56.1781 7.91333 55.8781 8.36C55.5848 8.8 55.3515 9.38333 55.1781 10.11C55.0048 10.8367 54.9181 11.74 54.9181 12.82C54.9181 13.9 55.0048 14.8033 55.1781 15.53C55.3515 16.2567 55.5848 16.84 55.8781 17.28C56.1781 17.72 56.5215 18.0333 56.9081 18.22C57.2948 18.4067 57.6981 18.5 58.1181 18.5C58.5381 18.5 58.9415 18.4067 59.3281 18.22C59.7148 18.0333 60.0548 17.72 60.3481 17.28C60.6481 16.84 60.8848 16.2567 61.0581 15.53C61.2381 14.8033 61.3281 13.9 61.3281 12.82Z" fill="#0D0D0D"/>
<path d="M155.53 11.4697C155.237 11.1768 154.763 11.1768 154.47 11.4697C154.177 11.7626 154.177 12.2374 154.47 12.5303L155.53 11.4697ZM159 16L158.47 16.5303C158.763 16.8232 159.237 16.8232 159.53 16.5303L159 16ZM163.53 12.5303C163.823 12.2374 163.823 11.7626 163.53 11.4697C163.237 11.1768 162.763 11.1768 162.47 11.4697L163.53 12.5303ZM154.47 12.5303L158.47 16.5303L159.53 15.4697L155.53 11.4697L154.47 12.5303ZM159.53 16.5303L163.53 12.5303L162.47 11.4697L158.47 15.4697L159.53 16.5303Z" fill="#868C94"/>
</svg>
