<svg width="126" height="38" viewBox="0 0 126 38" fill="none" xmlns="http://www.w3.org/2000/svg">
<path d="M25.5746 27.2228C23.7051 28.9035 21.2367 29.835 18.5279 29.835C12.5566 29.835 8.17142 25.4499 8.17142 19.4292C8.17142 13.4085 12.4171 9.20791 18.5279 9.20791C21.1895 9.20791 23.7051 10.0944 25.6218 11.775L26.9247 12.8955L32.7136 7.10871L31.2648 5.80154C27.8584 2.72572 23.3359 1 18.5258 1C7.79366 1 0 8.74429 0 19.3841C0 29.9788 7.9804 38 18.5258 38C23.426 38 27.9958 36.2743 31.3592 33.1491L32.7587 31.8419L26.8796 26.0595L25.5746 27.2228Z" fill="#172B33"/>
<path d="M18.2444 13.3164C21.6743 13.3164 24.454 16.0917 24.454 19.5239C24.454 22.9517 21.6743 25.7313 18.2444 25.7313C14.8165 25.7313 12.0391 22.9517 12.0391 19.5239C12.0412 16.0939 14.8187 13.3164 18.2444 13.3164Z" fill="#FF3D2E"/>
<path d="M49.5 1L51.1839 6.18237H56.6329L52.2245 9.38525L53.9084 14.5676L49.5 11.3647L45.0916 14.5676L46.7755 9.38525L42.3671 6.18237H47.8161L49.5 1Z" stroke="#FE382F" stroke-linecap="round" stroke-linejoin="round"/>
<path d="M66.5 1L68.1839 6.18237H73.6329L69.2245 9.38525L70.9084 14.5676L66.5 11.3647L62.0916 14.5676L63.7755 9.38525L59.3671 6.18237H64.8161L66.5 1Z" stroke="#FE382F" stroke-linecap="round" stroke-linejoin="round"/>
<path d="M83.5 1L85.1839 6.18237H90.6329L86.2245 9.38525L87.9084 14.5676L83.5 11.3647L79.0916 14.5676L80.7755 9.38525L76.3671 6.18237H81.8161L83.5 1Z" stroke="#FE382F" stroke-linecap="round" stroke-linejoin="round"/>
<path d="M100.5 1L102.184 6.18237H107.633L103.225 9.38525L104.908 14.5676L100.5 11.3647L96.0916 14.5676L97.7755 9.38525L93.3671 6.18237H98.8161L100.5 1Z" stroke="#FE382F" stroke-linecap="round" stroke-linejoin="round"/>
<path d="M117.5 1L119.184 6.18237H124.633L120.225 9.38525L121.908 14.5676L117.5 11.3647L113.092 14.5676L114.775 9.38525L110.367 6.18237H115.816L117.5 1Z" stroke="#FE382F" stroke-linecap="round" stroke-linejoin="round"/>
<path d="M49.0684 28.7549C49.0684 30.236 48.8154 31.3366 48.3096 32.0566C47.8037 32.7767 47.013 33.1367 45.9375 33.1367C44.8757 33.1367 44.0895 32.7858 43.5791 32.084C43.0687 31.3776 42.8044 30.3249 42.7861 28.9258V27.2373C42.7861 25.7744 43.0391 24.6875 43.5449 23.9766C44.0508 23.2656 44.8438 22.9102 45.9238 22.9102C46.9948 22.9102 47.7832 23.2542 48.2891 23.9424C48.7949 24.626 49.0547 25.6833 49.0684 27.1143V28.7549ZM47.8037 27.0254C47.8037 25.9544 47.6533 25.1751 47.3525 24.6875C47.0518 24.1953 46.5755 23.9492 45.9238 23.9492C45.2767 23.9492 44.805 24.193 44.5088 24.6807C44.2126 25.1683 44.0599 25.918 44.0508 26.9297V28.9531C44.0508 30.0286 44.2057 30.8239 44.5156 31.3389C44.8301 31.8493 45.304 32.1045 45.9375 32.1045C46.5618 32.1045 47.0244 31.863 47.3252 31.3799C47.6305 30.8968 47.79 30.1357 47.8037 29.0967V27.0254ZM60.0996 28.9736H57.7618V33H56.4424V23.0469H59.7373C60.8584 23.0469 61.7198 23.3021 62.3213 23.8125C62.9274 24.3229 63.2305 25.0658 63.2305 26.041C63.2305 26.6608 63.0619 27.2008 62.7246 27.6611C62.392 28.1214 61.9271 28.4655 61.3301 28.6934L63.668 32.918V33H62.2598L60.0996 28.9736ZM57.7618 27.9004H59.7784C60.4301 27.9004 60.9473 27.7318 61.3301 27.3945C61.7175 27.0573 61.9112 26.6061 61.9112 26.041C61.9112 25.4258 61.7266 24.9541 61.3575 24.626C60.9929 24.2979 60.4642 24.1315 59.7715 24.127H57.7618V27.9004ZM71.6822 28.3994H67.3687V31.9268H72.3795V33H66.0562V23.0469H72.3111V24.127H67.3687V27.3262H71.6822V28.3994ZM78.2882 31.2568L81.1319 23.0469H82.5675L78.8761 33H77.7139L74.0294 23.0469H75.4581L78.2882 31.2568ZM86.2955 33H84.983V23.0469H86.2955V33ZM95.3077 28.3994H90.9943V31.9268H96.005V33H89.6818V23.0469H95.9366V24.127H90.9943V27.3262H95.3077V28.3994ZM100.765 29.8623L100.957 31.1748L101.237 29.9922L103.206 23.0469H104.313L106.234 29.9922L106.507 31.1953L106.719 29.8555L108.264 23.0469H109.584L107.171 33H105.974L103.923 25.7471L103.766 24.9883L103.609 25.7471L101.483 33H100.287L97.8805 23.0469H99.193L100.765 29.8623ZM114.959 28.5635C113.833 28.2399 113.013 27.8434 112.498 27.374C111.988 26.9001 111.733 26.3167 111.733 25.624C111.733 24.8402 112.045 24.193 112.669 23.6826C113.298 23.1676 114.114 22.9102 115.116 22.9102C115.8 22.9102 116.408 23.0423 116.942 23.3066C117.479 23.571 117.894 23.9355 118.186 24.4004C118.482 24.8652 118.63 25.3734 118.63 25.9248H117.311C117.311 25.3232 117.119 24.8516 116.736 24.5098C116.354 24.1634 115.814 23.9902 115.116 23.9902C114.469 23.9902 113.963 24.1338 113.599 24.4209C113.239 24.7035 113.059 25.0977 113.059 25.6035C113.059 26.0091 113.23 26.3532 113.571 26.6357C113.918 26.9137 114.503 27.1689 115.328 27.4014C116.158 27.6338 116.805 27.8913 117.27 28.1738C117.739 28.4518 118.085 28.7777 118.309 29.1514C118.537 29.5251 118.651 29.9648 118.651 30.4707C118.651 31.2773 118.336 31.9245 117.707 32.4121C117.078 32.8952 116.237 33.1367 115.185 33.1367C114.501 33.1367 113.863 33.0068 113.271 32.7471C112.678 32.4827 112.22 32.1227 111.897 31.667C111.578 31.2113 111.418 30.694 111.418 30.1152H112.737C112.737 30.7168 112.958 31.193 113.401 31.5439C113.847 31.8903 114.442 32.0635 115.185 32.0635C115.877 32.0635 116.408 31.9222 116.777 31.6396C117.147 31.3571 117.331 30.972 117.331 30.4844C117.331 29.9967 117.16 29.6208 116.819 29.3564C116.477 29.0876 115.857 28.8232 114.959 28.5635Z" fill="#5F6E72"/>
</svg>
